# xmcd CD database file
#
# Track frame offsets:
#	187
#	17225
#	37422
#	55797
#	78695
#	101425
#	110307
#	119707
#	137967
#	156022
#	171577
#
# Disc length: 2620 seconds
#
# Revision: 0
# Processed by: cddbd v1.5PL3 Copyright (c) Steve Scherf et al.
# Submitted via: CDex 1.51
#
DISCID=9e0a3a0b
DTITLE=Alice Visconti - La Mia Poca Grande Eta - 夢の中の少女
DYEAR=1975
DGENRE=Pop
TTITLE0=Diciott' Anni - 夢見る 18 才
TTITLE1=Mi Chiamo Alice - 私はアリーチェ
TTITLE2=La Mia Estate - ひと夏の感傷
TTITLE3=Domani Vado Via - 美しい明日
TTITLE4=Pensieri Nel Sole - 思い出
TTITLE5=E Notte Da Un Po' - 夜のヴェールに包まれて
TTITLE6=Libera - きままなひととき
TTITLE7=Una Casa Solo Mia - 私の家
TTITLE8=Sempre Tu Sempre Di Piu - いつも、いつも...
TTITLE9=Una Giornata Con Mio Padre - 最愛の人
TTITLE10=Voglio Vivere - 希望に燃えて
EXTD=YEAR: 1975
EXTT0=
EXTT1=
EXTT2=
EXTT3=
EXTT4=
EXTT5=
EXTT6=
EXTT7=
EXTT8=
EXTT9=
EXTT10=
PLAYORDER=
